mtllib materials.mtl
v -0.09471518 0.004999995 -0.0073511
v -0.06480125 0.004999995 0.06946796
v -0.06480125 0 0.06946796
v -0.09471518 0 -0.0073511
v 0.01390934 0.004999995 0.09397623
v 0.01390934 0 0.09397623
v 0.08214591 0.004999995 0.04771847
v 0.08214591 0 0.04771847
v 0.08852493 0.004999995 -0.03447229
v 0.08852493 0 -0.03447229
v 0.02824289 0.004999995 -0.09070468
v 0.02824289 0 -0.09070468
v -0.05330664 0.004999995 -0.07863462
v -0.05330664 0 -0.07863462
v 0.03759128 0.01499999 -0.1207279
v -0.07095113 0.01499999 -0.1046627
v 0.1178267 0.01499999 -0.04588261
v 0.1093362 0.01499999 0.06351328
v 0.01851334 0.01499999 0.1250824
v -0.08625048 0.01499999 0.09246185
v -0.1260659 0.01499999 -0.009784311
v 0.04953368 0.03499997 -0.159082
v -0.09349164 0.03499997 -0.137913
v 0.1552591 0.03499997 -0.06045902
v 0.1440713 0.03499997 0.08369085
v 0.02439484 0.03499997 0.1648199
v -0.1136514 0.03499997 0.1218361
v -0.1661159 0.03499997 -0.01289266
v 0.04458031 0.04499996 -0.1431738
v -0.08414251 0.04499996 -0.1241216
v 0.1397332 0.04499996 -0.05441311
v 0.1296642 0.04499996 0.07532176
v 0.02195536 0.04499996 0.148338
v -0.1022863 0.04499996 0.1096525
v -0.1495043 0.04499996 -0.01160339
v 0.03249905 0.02499992 -0.1043737
v -0.06133988 0.02499992 -0.09048465
v 0.1018655 0.02499992 -0.03966716
v 0.0945252 0.02499992 0.05490953
v 0.01600546 0.02499992 0.1081384
v -0.07456672 0.02499992 0.07993671
v -0.1089886 0.02499992 -0.008458883
vn -0.9318413 -1.717407E-07 0.362866
vn -0.2972935 -8.783161E-08 0.9547861
vn 0.5611225 8.21137E-08 0.8277328
vn 0.9970018 1.748456E-07 0.07737969
vn 0.6821185 4.792492E-07 -0.7312418
vn -0.146414 -1.1868E-07 -0.9892234
vn -0.8646936 -7.363634E-08 -0.5022997
vn -0.04873297 -0.9429818 -0.3292575
vn 1.743213E-07 -1 1.352953E-08
vn 0.227039 -0.942982 -0.2433894
vn 0.3318458 -0.942982 0.02575533
vn 0.1867662 -0.942982 0.2755057
vn -0.09895247 -0.9429818 0.3177952
vn -0.3101584 -0.9429817 0.1207781
vn -0.2878085 -0.9429818 -0.1671877
vn -0.07081581 -0.8752517 -0.4784556
vn 0.3299187 -0.8752517 -0.3536782
vn 0.4822173 -0.8752519 0.03742608
vn 0.2713967 -0.8752518 0.4003474
vn -0.1437914 -0.8752519 0.4617989
vn -0.4507014 -0.8752518 0.1755067
vn -0.4182245 -0.8752517 -0.2429463
vn -0.08117257 0.8322477 -0.5484294
vn 0.3781697 0.8322473 -0.405404
vn 0.552743 0.8322468 0.04289974
vn 0.3110895 0.8322468 0.4588995
vn -0.1648215 0.8322465 0.529339
vn -0.5166178 0.8322468 0.2011749
vn -0.4793903 0.8322471 -0.2784774
vn 0.07018981 0.8776007 0.4742262
vn -0.3270023 0.8776006 0.3505519
vn -0.477955 0.8776007 -0.03709525
vn -0.2689979 0.8776008 -0.3968084
vn 0.1425204 0.8776008 -0.4577169
vn 0.4467178 0.8776006 -0.1739553
vn 0.4145277 0.8776006 0.2407989
vn -1.04012E-08 1 -8.072769E-10
vt 0.05417077 0.07910839
vt 0.04594184 0.0796032
vt 0.04591183 0.0791041
vt 0.05414076 0.07860929
vt 0.0888 0.01124761
vt 0.08461515 0.01835022
vt 0.08418436 0.0180964
vt 0.08836921 0.01099379
vt 0.07302196 0.03783974
vt 0.0694166 0.04525334
vt 0.06896695 0.04503467
vt 0.07257232 0.03762107
vt 0.02748899 0.08498015
vt 0.02125997 0.09038011
vt 0.02093246 0.09000231
vt 0.02716147 0.08460235
vt -0.08483358 0.0321087
vt -0.09073538 0.02635293
vt -0.09038628 0.02599498
vt -0.08448448 0.03175074
vt -0.0783513 0.02676554
vt -0.08191907 0.01933378
vt -0.08146833 0.01911739
vt -0.07790055 0.02654915
vt -0.05465344 0.0680197
vt -0.05897932 0.06100209
vt -0.05855369 0.06073972
vt -0.05422781 0.06775732
vt -0.07786523 0.007948156
vt -0.07516204 0.01573615
vt -0.07755295 0.01801023
vt -0.0811509 0.007644405
vt -0.04895107 -0.01389289
vt -0.04071058 -0.01365947
vt -0.03575521 -0.00707127
vt -0.03781645 0.0009106704
vt -0.04534215 0.004275784
vt -0.05266529 0.0004900711
vt -0.05427141 -0.00759575
vt -0.06347606 0.02640155
vt -0.05599181 0.02985783
vt -0.05601278 0.03315745
vt -0.06597433 0.02855713
vt -0.03497578 0.02867647
vt -0.02732466 0.0256072
vt -0.02493982 0.02788765
vt -0.03512346 0.03197284
vt -0.01032197 0.006969954
vt -0.00722489 -0.0006699535
vt -0.003927999 -0.0008056448
vt -0.008050217 0.009363076
vt -0.008452626 -0.02617149
vt -0.01221638 -0.03350595
vt -0.01016628 -0.03609148
vt -0.005156721 -0.02632931
vt -0.03964461 -0.04060784
vt -0.04788306 -0.04090466
vt -0.04913835 -0.04395624
vt -0.03817298 -0.04356117
vt -0.07185958 -0.01813207
vt -0.07605671 -0.01103671
vt -0.0793372 -0.01139205
vt -0.07375081 -0.02083598
vt -0.08885191 0.01515276
vt -0.08472387 0.02531911
vt -0.08789942 0.02848967
vt -0.0933389 0.01509356
vt -0.07029881 0.03855352
vt -0.0603184 0.04311278
vt -0.06045125 0.04759819
vt -0.07360234 0.0415905
vt -0.03029086 0.04426808
vt -0.02009461 0.04021444
vt -0.01694734 0.04341307
vt -0.03038283 0.04875452
vt 0.004979469 0.01518302
vt 0.009575129 0.005219314
vt 0.01406003 0.005368535
vt 0.008004372 0.01849762
vt 0.01106849 -0.03164995
vt 0.007230652 -0.04192938
vt 0.01049491 -0.04500853
vt 0.015552 -0.03146344
vt -0.03733276 -0.05535568
vt -0.04829476 -0.05583528
vt -0.04985527 -0.06004258
vt -0.03541075 -0.05941061
vt -0.0841319 -0.01568991
vt -0.08856218 -0.005651576
vt -0.09304892 -0.005726628
vt -0.08721118 -0.01895403
vt -0.0009308568 -0.02114435
vt 0.0005197715 -0.006758961
vt -0.001347396 -0.00729726
vt -0.00265296 -0.02024411
vt 0.02101345 -0.04982423
vt 0.01058446 -0.03981025
vt 0.009856625 -0.04161201
vt 0.01924271 -0.05062459
vt 0.07000834 -0.01251829
vt 0.05882012 -0.02167619
vt 0.06052201 -0.02261407
vt 0.07059142 -0.01437196
vt 0.07131639 0.01736553
vt 0.07210607 0.002928763
vt 0.07386763 0.003749115
vt 0.07315692 0.01674221
vt 0.06155584 0.02544291
vt 0.07152852 0.01497441
vt 0.07233588 0.01674196
vt 0.06336047 0.02616361
vt 0.038776 0.0304768
vt 0.05322949 0.03010238
vt 0.05255353 0.03192423
vt 0.03954538 0.03226121
vt 0.01063487 0.01473653
vt 0.02108044 0.02473321
vt 0.01931103 0.0255365
vt 0.009910019 0.01653949
vt 0.09210041 0.01523701
vt 0.08722131 0.02730017
vt 0.08401485 0.02410132
vt 0.08757171 0.01530727
vt 0.07247439 0.04086564
vt 0.06063826 0.04627224
vt 0.06050864 0.04174485
vt 0.06913718 0.03780343
vt 0.0301644 0.04735105
vt 0.01807224 0.04254428
vt 0.02125184 0.03931871
vt 0.03006702 0.04282285
vt -0.007172497 0.01729944
vt -0.01260823 0.00547665
vt -0.008081174 0.005335882
vt -0.004118517 0.0139547
vt -0.01401422 -0.03175833
vt -0.009417085 -0.04393174
vt -0.006137066 -0.04080835
vt -0.009488378 -0.03193393
vt 0.03620064 -0.05827492
vt 0.04920087 -0.05883989
vt 0.04762048 -0.05459531
vt 0.0381433 -0.05418345
vt 0.086447 -0.01819113
vt 0.09174688 -0.006306832
vt 0.08721851 -0.00621795
vt 0.08335491 -0.0148816
vt 0.05565757 -0.007953727
vt 0.05380942 0.001350617
vt 0.04538269 0.005706835
vt 0.03672288 0.001834607
vt 0.034351 -0.007350207
vt 0.04005314 -0.01493124
vt 0.04953546 -0.01519984
o group842494523
g mesh842494523
usemtl mat19
f 4/4/1 3/3/1 2/2/1 1/1/1
f 3/8/2 6/7/2 5/6/2 2/5/2
f 6/12/3 8/11/3 7/10/3 5/9/3
f 8/16/4 10/15/4 9/14/4 7/13/4
f 10/20/5 12/19/5 11/18/5 9/17/5
f 12/24/6 14/23/6 13/22/6 11/21/6
f 14/28/7 4/27/7 1/26/7 13/25/7
f 16/32/8 15/31/8 11/30/8 13/29/8
f 14/39/9 12/38/9 10/37/9 8/36/9 6/35/9 3/34/9 4/33/9
f 15/43/10 17/42/10 9/41/10 11/40/10
f 17/47/11 18/46/11 7/45/11 9/44/11
f 18/51/12 19/50/12 5/49/12 7/48/12
f 19/55/13 20/54/13 2/53/13 5/52/13
f 20/59/14 21/58/14 1/57/14 2/56/14
f 21/63/15 16/62/15 13/61/15 1/60/15
f 23/67/16 22/66/16 15/65/16 16/64/16
f 22/71/17 24/70/17 17/69/17 15/68/17
f 24/75/18 25/74/18 18/73/18 17/72/18
f 25/79/19 26/78/19 19/77/19 18/76/19
f 26/83/20 27/82/20 20/81/20 19/80/20
f 27/87/21 28/86/21 21/85/21 20/84/21
f 28/91/22 23/90/22 16/89/22 21/88/22
f 30/95/23 29/94/23 22/93/23 23/92/23
f 29/99/24 31/98/24 24/97/24 22/96/24
f 31/103/25 32/102/25 25/101/25 24/100/25
f 32/107/26 33/106/26 26/105/26 25/104/26
f 33/111/27 34/110/27 27/109/27 26/108/27
f 34/115/28 35/114/28 28/113/28 27/112/28
f 35/119/29 30/118/29 23/117/29 28/116/29
f 37/123/30 36/122/30 29/121/30 30/120/30
f 36/127/31 38/126/31 31/125/31 29/124/31
f 38/131/32 39/130/32 32/129/32 31/128/32
f 39/135/33 40/134/33 33/133/33 32/132/33
f 40/139/34 41/138/34 34/137/34 33/136/34
f 41/143/35 42/142/35 35/141/35 34/140/35
f 42/147/36 37/146/36 30/145/36 35/144/36
f 42/154/37 41/153/37 40/152/37 39/151/37 38/150/37 36/149/37 37/148/37
